<svg height="512" viewBox="0 0 64 64" width="512" xmlns="http://www.w3.org/2000/svg"><g id="payment-smartphone-card-2" data-name="payment-smartphone-card"><path d="m53 33h2a3 3 0 0 0 -3-3v-1h-2v1a3 3 0 0 0 0 6v2a1 1 0 0 1 -1-1h-2a3 3 0 0 0 3 3v1h2v-1a3 3 0 0 0 0-6v-2a1 1 0 0 1 1 1zm0 4a1 1 0 0 1 -1 1v-2a1 1 0 0 1 1 1zm-3-3a1 1 0 0 1 0-2z"/><path d="m61 35a9.964 9.964 0 0 0 -3-7.129v-1.91a2.988 2.988 0 0 0 -1.125-2.342 1.008 1.008 0 0 0 -.122-.083l-4.753-2.775v-13.761a5.006 5.006 0 0 0 -5-5h-30a5.006 5.006 0 0 0 -5 5v50a5.006 5.006 0 0 0 5 5h30a5.006 5.006 0 0 0 5-5v-12.051a10.013 10.013 0 0 0 9-9.949zm-5-9.039v.392a9.928 9.928 0 0 0 -5-1.353 9.816 9.816 0 0 0 -3.326.575 4.2 4.2 0 0 0 -3.866-2.575h-4.808v2h4.808a2.192 2.192 0 0 1 1.231 4.006l-7.077 1.967-4.469-.894-3.786-3.786-1.414 1.414 1.626 1.626-2.919.487v-10l9.009-1.8 10.639 1.934 9.023 5.268a.994.994 0 0 1 .329.739zm-8.5-7.824a.981.981 0 0 0 -.325-.12l-11-2a.986.986 0 0 0 -.375 0l-8.8 1.763v-.78a1 1 0 0 0 -1-1h-6a1 1 0 0 0 -1 1h-5v-7h36v9.594zm-22.5-.137v14h-4v-14zm-6 13h-5v-12h5zm-2-27h30a3 3 0 0 1 3 3v1h-36v-1a3 3 0 0 1 3-3zm-3 29h5a1 1 0 0 0 1 1h6a1 1 0 0 0 1-1v-1.153l4.657-.776.636.636a1 1 0 0 0 .511.273l5 1a1 1 0 0 0 .196.02 1.018 1.018 0 0 0 .268-.036l3.19-.887a9.934 9.934 0 0 0 8.542 12.872v5.051h-36zm33 27h-30a3 3 0 0 1 -3-3v-5h36v5a3 3 0 0 1 -3 3zm4-17a7.961 7.961 0 0 1 -7.122-11.595l1.84-.511a1.043 1.043 0 0 0 .247-.107 4.212 4.212 0 0 0 2.007-3.175 7.826 7.826 0 0 1 3.028-.612 8 8 0 0 1 0 16z"/><path d="m32 53a3 3 0 1 0 3 3 3 3 0 0 0 -3-3zm0 4a1 1 0 1 1 1-1 1 1 0 0 1 -1 1z"/><path d="m30 5h4v2h-4z"/><path d="m16 39h4v2h-4z"/><path d="m22 39h15v2h-15z"/><path d="m16 43h4v2h-4z"/><path d="m22 43h15v2h-15z"/></g></svg>