<svg id="Capa_1" enable-background="new 0 0 512 512" height="512" viewBox="0 0 512 512" width="512" xmlns="http://www.w3.org/2000/svg"><g><path d="m185.457 331.96c-12.982-4.589-27.335-10.127-35.35-16.413-5.426-4.256-3.182-19.85 7.808-23.16 15.064-4.54 24.964 3.297 25.855 4.038l1.549 1.429c6.089 5.616 15.579 5.234 21.196-.854 5.617-6.09 5.234-15.579-.855-21.196-.75-.56-8.825-9.595-25.546-13.37v-5.357c0-8.284-6.716-15-15-15s-15 6.716-15 15v6.347c-34.958 10.018-43.412 56.206-18.521 75.728 9.212 7.225 21.921 13.336 43.866 21.092 23.656 8.362 13.247 40.922-10.444 41.079-13.765.1-18.067-.588-28.624-7.495-6.933-4.536-16.229-2.592-20.765 4.341-4.535 6.932-2.592 16.229 4.341 20.764 11.44 7.484 19.927 10.59 30.147 11.76v6.141c0 8.284 6.716 15 15 15s15-6.716 15-15v-7.6c45.972-13.079 54.802-79.791 5.343-97.274z"/><path d="m76 151.01h120c8.284 0 15-6.716 15-15s-6.716-15-15-15h-120c-8.284 0-15 6.716-15 15 0 8.285 6.716 15 15 15z"/><path d="m61 196.009c0 8.284 6.716 15 15 15h180c8.284 0 15-6.716 15-15s-6.716-15-15-15h-180c-8.284 0-15 6.716-15 15z"/><path d="m497 182.009h-167v-136.996c0-5.681-3.21-10.876-8.292-13.416l-60-29.999c-4.221-2.11-9.19-2.111-13.412-.003l-53.343 26.649-53.295-26.646c-4.225-2.115-9.2-2.111-13.425.004l-53.191 26.64-53.338-26.646c-9.954-4.971-21.704 2.271-21.704 13.418v481.986c0 8.284 6.716 15 15 15h300c8.284 0 15-6.716 15-15v-15h167c8.284 0 15-6.716 15-15v-269.991c0-8.284-6.716-15-15-15zm-136 30v58.998h-31v-58.998zm-61 269.992h-270v-442.726l38.346 19.157c4.225 2.109 9.197 2.108 13.421-.007l53.188-26.638 53.287 26.642c4.222 2.11 9.19 2.111 13.412.003l53.343-26.649 45.003 22.501zm182-29.999h-152v-150.996h46c8.284 0 15-6.716 15-15v-73.998h91z"/></g></svg>