<svg id="outline" enable-background="new 0 0 512 512" height="512" viewBox="0 0 512 512" width="512" xmlns="http://www.w3.org/2000/svg"><path d="m260 336h-20c-4.418457 0-8 3.5820313-8 8s3.581543 8 8 8h8c0 4.4179688 3.581543 8 8 8s8-3.5820313 8-8v-.4030762c9.1176758-1.8583984 16-9.9382324 16-19.5969238 0-11.0283203-8.972168-20-20-20h-8c-2.2055664 0-4-1.7939453-4-4s1.7944336-4 4-4h20c4.418457 0 8-3.5820313 8-8s-3.581543-8-8-8h-8c0-4.4179688-3.581543-8-8-8s-8 3.5820313-8 8v.4030762c-9.1176758 1.8583984-16 9.9382324-16 19.5969238 0 11.0283203 8.972168 20 20 20h8c2.2055664 0 4 1.7939453 4 4s-1.7944336 4-4 4z"/><path d="m440 416h-48-32-4.6865234l-21.6567383-21.6572266c-1.5-1.5-3.5351563-2.3427734-5.6567383-2.3427734h-40c-13.2338867 0-24 10.7666016-24 24 0 2.8037109.4833984 5.4970703 1.3710938 8h-49.3710938c-4.418457 0-8 3.5820313-8 8v32c0 2.1220703.8427734 4.15625 2.3432617 5.6572266l40 40c1.5 1.5 3.5351563 2.3427734 5.6567383 2.3427734h104 32 48c4.418457 0 8-3.5820313 8-8v-80c0-4.4179687-3.581543-8-8-8zm-88 80h-92.6865234l-35.3134766-35.3134766v-20.6865234h73.3762207c3.3024902 9.3110352 12.194458 16 22.6237793 16 4.418457 0 8-3.5820313 8-8s-3.581543-8-8-8c-4.4111328 0-8-3.5888672-8-8 0-4.4179688-3.581543-8-8-8h-16c-4.4111328 0-8-3.5888672-8-8s3.5888672-8 8-8h36.6865234l21.6567383 21.6572266c1.5 1.5 3.5351563 2.3427734 5.6567383 2.3427734zm32-64v64h-16v-64zm48 64h-32v-64h32z"/><path d="m256 168c17.6450195 0 32-14.3554688 32-32s-14.3549805-32-32-32-32 14.3554688-32 32 14.3549805 32 32 32zm0-48c8.8222656 0 16 7.1777344 16 16s-7.1777344 16-16 16-16-7.1777344-16-16 7.1777344-16 16-16z"/><path d="m192 232c0 4.4179688 3.581543 8 8 8h112c4.418457 0 8-3.5820313 8-8v-192c0-4.4179688-3.581543-8-8-8h-20.6860352l-29.6572265-29.6572266c-1.5-1.5-3.5351563-2.3427734-5.6567383-2.3427734h-104-32-48c-4.418457 0-8 3.5820313-8 8v80c0 4.4179688 3.581543 8 8 8h48 32 12.6865234l24.6958008 24.6962891c.8314209.8317871 1.713501 1.5693359 2.6176758 2.2580566zm-80-152h-32v-64h32zm32-64v64h-16v-64zm80.6967773 69.3828125-8.7217407-8.7214355c11.7636109-5.1462403 20.5958863-15.7856446 23.2200318-28.661377h33.6098633c3.1894531 15.6496582 15.545166 28.0053711 31.1950683 31.1950684v113.6098633c-15.6499023 3.1896972-28.0056152 15.5454101-31.1950684 31.1950683h-33.6098633c-3.1895141-15.6496582-15.5451049-28.0053711-31.1950683-31.1950684v-64.8291016c6.2424316-.2451172 12.2817383-2.8640137 16.6967773-7.2785645 4.6411133-4.6416014 7.3032227-11.0771483 7.3032227-17.6572264 0-6.6767578-2.59375-12.9472657-7.3032227-17.6572266zm-16.6967773-22.7590332v-14.6237793h14.6238403c-2.4144287 6.807373-7.8164673 12.2094727-14.6238403 14.6237793zm0 146.7524414c6.807373 2.4143066 12.2094116 7.8164063 14.6238403 14.6237793h-14.6238403zm81.3762207 14.6237793c2.4143066-6.807373 7.8164063-12.2094727 14.6237793-14.6237793v14.6237793zm14.6237793-161.3762207c-6.807373-2.4143066-12.2094727-7.8164063-14.6237793-14.6237793h14.6237793zm-130.3432617 19.7189941c-1.5-1.5-3.5351563-2.3427734-5.6567383-2.3427734h-8v-64h92.6865234l16 16h-68.6865234c-4.418457 0-8 3.5820313-8 8v32c0 2.1220703.8427734 4.15625 2.3432617 5.6572266l19.0400391 19.0400391c1.6875 1.6875 2.6166992 3.9394531 2.6166992 6.3427734 0 2.3681641-.9536133 4.6796875-2.6166992 6.3427734-2.5458984 2.5458984-6.5029297 3.3994141-10.1904297 1.7626953-.8505859-.3701172-1.7133789-.9794922-2.4960938-1.7626953z"/><path d="m168 200h-32c-4.418457 0-8 3.5820313-8 8v4.6860352l-34.3432617-34.3432617c-3.1240234-3.1230469-8.1894531-3.1230469-11.3134766 0l-80 80c-1.5004883 1.5009765-2.3432617 3.5351562-2.3432617 5.6572265v64c0 4.4179688 3.581543 8 8 8h160c4.418457 0 8-3.5820313 8-8v-64-56c0-4.4179687-3.581543-8-8-8zm-24 16h16v28.6860352l-16-16zm-16 104h-20.6860352l20.6860352-20.6860352zm-32-11.3139648v-57.3725586l28.6862793 28.6862793zm-16 0-28.6862793-28.6862793 28.6862793-28.6862793zm-32-9.3720704 20.6860352 20.6860352h-20.6860352zm112 20.6860352h-16v-40c0-2.1220703-.8427734-4.15625-2.3432617-5.6572266l-48-48c-3.1240234-3.1230469-8.1894531-3.1230469-11.3134766 0l-48 48c-1.5004883 1.5009766-2.3432617 3.5351563-2.3432617 5.6572266v40h-16v-52.6865234l72-72 72 72z"/><path d="m512 240v-24c0-3.2714844-1.9916992-6.2128906-5.0288086-7.4277344l-80-32c-1.9072266-.7636719-4.0351563-.7636719-5.9423828 0l-80 32c-3.0371094 1.2148438-5.0288086 4.15625-5.0288086 7.4277344v24c0 3.7612305 2.5996094 6.907959 6.0979004 7.7629395-2.7202148 14.3037109-2.7202148 26.1704102 0 40.4741211-3.498291.8549804-6.0979004 4.0017089-6.0979004 7.7629394v32c0 4.4179688 3.581543 8 8 8h160c4.418457 0 8-3.5820313 8-8v-32c0-3.7612305-2.5996094-6.907959-6.0979004-7.7629395 2.7202148-14.3037109 2.7202148-26.1704102 0-40.4741211 3.498291-.8549804 6.0979004-4.0017089 6.0979004-7.7629394zm-22.3666992 48h-3.2666016c-3.0566406-14.4726563-3.0566406-25.5273438 0-40h3.2666016c3.0566406 14.4726563 3.0566406 25.5273438 0 40zm-131.2666016 0c-3.0566406-14.4726563-3.0566406-25.5273438 0-40h3.2666016c3.0566406 14.4726563 3.0566406 25.5273438 0 40zm19.5800781-40h28.1064453c-2.6604004 14.1186523-2.6604004 25.8813477 0 40h-28.1064453c2.6604004-14.1186523 2.6604004-25.8813477 0-40zm46.0532227-40c4.4111328 0 8 3.5888672 8 8s-3.5888672 8-8 8-8-3.5888672-8-8 3.5888672-8 8-8zm-1.6333008 80c-3.0566406-14.4726563-3.0566406-25.5273438 0-40h3.2666016c3.0566406 14.4726563 3.0566406 25.5273438 0 40zm19.5800781-40h28.1064453c-2.6604004 14.1186523-2.6604004 25.8813477 0 40h-28.1064453c2.6604004-14.1186523 2.6604004-25.8813477 0-40zm54.0532227-16h-54.1307373c3.8088379-4.2495117 6.1307373-9.8579102 6.1307373-16 0-6.3251953-2.463623-12.0827637-6.4765625-16.3745117l54.4765625 21.7905273zm-144-10.5839844 54.4765625-21.7905273c-4.0129395 4.291748-6.4765625 10.0493164-6.4765625 16.3745117 0 6.1420898 2.3218994 11.7504883 6.1307373 16h-54.1307373zm144 98.5839844h-144v-16h144z"/><path d="m88 112c-4.418457 0-8 3.5820313-8 8v12.6860352l-2.3432617-2.3432617c-3.1240234-3.1230469-8.1894531-3.1230469-11.3134766 0-3.1245117 3.125-3.1245117 8.1894531 0 11.3144531l16 16c1.5620117 1.5615234 3.609375 2.3427734 5.6567383 2.3427734s4.0947266-.78125 5.6567383-2.3427734l16-16c3.1245117-3.125 3.1245117-8.1894531 0-11.3144531-3.1240234-3.1230469-8.1894531-3.1230469-11.3134766 0l-2.3432617 2.3432617v-12.6860352c0-4.4179687-3.581543-8-8-8z"/><path d="m429.6567383 354.3427734c-3.1240234-3.1230469-8.1894531-3.1230469-11.3134766 0l-16 16c-3.1245117 3.125-3.1245117 8.1894531 0 11.3144531 3.1240234 3.1230469 8.1894531 3.1230469 11.3134766 0l2.3432617-2.3432617v12.6860352c0 4.4179688 3.581543 8 8 8s8-3.5820313 8-8v-12.6860352l2.3432617 2.3432617c1.5620117 1.5615235 3.609375 2.3427735 5.6567383 2.3427735s4.0947266-.78125 5.6567383-2.3427734c3.1245117-3.125 3.1245117-8.1894531 0-11.3144531z"/><path d="m256 384c35.2895508 0 64-28.7099609 64-64s-28.7104492-64-64-64-64 28.7099609-64 64 28.7104492 64 64 64zm0-112c26.4672852 0 48 21.5322266 48 48s-21.5327148 48-48 48-48-21.5322266-48-48 21.5327148-48 48-48z"/></svg>